
<svg version="1.1" id="Layer_1" xmlns="http://www.w3.org/2000/svg" xmlns:xlink="http://www.w3.org/1999/xlink" x="0px" y="0px"
	 width="100%" viewBox="0 0 512 512" enable-background="new 0 0 512 512" xml:space="preserve">
<path fill="#000000" opacity="1.000000" stroke="none" 
	d="
M398.000000,0.999992 
	C436.315765,1.000000 474.631500,1.000000 512.973633,1.000000 
	C512.973633,171.570831 512.973633,342.141693 512.973633,513.000000 
	C405.312073,513.000000 297.623871,513.000000 189.132935,512.746216 
	C192.262878,509.128113 193.306381,504.900696 193.108353,499.776703 
	C192.764221,490.873322 193.090317,481.944061 193.595016,473.014160 
	C263.523926,473.002045 332.993225,473.001556 402.462524,473.000488 
	C410.331543,473.000366 411.000031,472.312622 411.000061,464.229370 
	C411.000183,411.419373 411.010864,358.609375 410.992859,305.799377 
	C410.988068,291.809265 410.894745,277.819153 411.048828,263.550018 
	C415.212585,260.532379 419.169617,257.793762 423.441925,254.911926 
	C424.579010,254.266525 425.451416,253.831146 426.215057,253.252274 
	C440.189056,242.659271 454.015930,231.962372 465.314240,218.303543 
	C476.035065,205.342804 485.120453,191.591827 491.157227,175.745789 
	C499.129944,154.818008 501.777588,133.122467 501.975403,110.977859 
	C502.106323,96.323578 501.605286,81.652603 502.145508,67.017090 
	C502.479431,57.969631 499.036530,52.778809 490.886536,48.822781 
	C460.774109,34.206192 430.944794,19.005833 401.045715,3.952127 
	C399.840515,3.345324 399.006805,2.000796 398.000000,0.999992 
z"/>
<path fill="#000000" opacity="1.000000" stroke="none" 
	d="
M17.000000,513.000000 
	C11.669220,513.000000 6.338440,513.000000 1.005745,513.000000 
	C1.003830,342.417603 1.003830,171.835190 1.003830,1.000000 
	C128.354660,1.000000 255.709473,1.000000 383.865784,1.261747 
	C383.329163,2.374913 382.051147,3.344439 380.644012,4.060022 
	C359.754120,14.683028 338.847198,25.272413 317.577576,35.924545 
	C307.191101,40.974861 297.250092,46.138039 287.118744,50.895947 
	C281.967834,53.314930 279.973389,57.143353 279.980255,62.514256 
	C279.989014,69.330948 279.908844,76.147751 279.406921,82.980423 
	C233.797058,82.997261 188.647278,82.985954 143.497498,83.006981 
	C131.006256,83.012802 118.515053,83.114746 105.559174,83.091873 
	C92.611374,83.006577 80.128227,82.997383 67.645088,82.999489 
	C62.036221,83.000435 60.003925,84.963173 60.003899,90.598763 
	C60.003609,157.342148 60.024837,224.085541 59.719410,290.960388 
	C43.702183,305.582489 36.446373,323.538391 36.928337,344.852753 
	C37.199356,356.838135 36.977310,368.834717 36.516060,380.900787 
	C32.055416,380.983063 28.056110,380.992706 24.056801,380.998047 
	C16.244238,381.008484 12.005757,385.230652 12.001070,393.171417 
	C11.979921,428.999329 11.996939,464.827209 11.983589,500.655121 
	C11.981944,505.068909 13.047657,508.939240 16.930658,511.598450 
	C17.164173,511.758392 16.986393,512.518921 17.000000,513.000000 
z"/>
<path fill="#FAC600" opacity="1.000000" stroke="none" 
	d="
M317.944275,35.869743 
	C338.847198,25.272413 359.754120,14.683028 380.644012,4.060022 
	C382.051147,3.344439 383.329163,2.374913 384.333618,1.261747 
	C388.356903,1.000000 392.713806,1.000000 397.535370,0.999992 
	C399.006805,2.000796 399.840515,3.345324 401.045715,3.952127 
	C430.944794,19.005833 460.774109,34.206192 490.886536,48.822781 
	C499.036530,52.778809 502.479431,57.969631 502.145508,67.017090 
	C501.605286,81.652603 502.106323,96.323578 501.975403,110.977859 
	C501.777588,133.122467 499.129944,154.818008 491.157227,175.745789 
	C485.120453,191.591827 476.035065,205.342804 465.314240,218.303543 
	C454.015930,231.962372 440.189056,242.659271 426.215057,253.252274 
	C425.451416,253.831146 424.579010,254.266525 423.090881,254.838501 
	C419.854828,253.388718 417.237915,251.943024 414.722595,250.338196 
	C388.118408,233.364029 362.742401,214.890076 344.397034,188.620300 
	C339.734955,181.944473 336.785217,174.072891 333.326691,166.954834 
	C351.650726,189.494415 374.592255,199.320328 403.687744,194.392700 
	C406.017853,193.870697 407.969788,193.445862 409.885193,192.894104 
	C441.212494,183.869919 462.279053,154.526245 460.887024,121.878250 
	C459.515533,89.712654 435.569794,62.067017 403.568481,56.023468 
	C395.077484,55.751396 386.809967,54.479801 378.918396,55.680115 
	C345.750183,60.725044 320.402466,89.353493 319.637756,123.642822 
	C318.961456,117.548363 318.106842,111.795219 318.063690,106.035995 
	C317.888428,82.648254 317.962311,59.258656 317.944275,35.869743 
z"/>
<path fill="#FAC600" opacity="1.000000" stroke="none" 
	d="
M193.135391,473.025635 
	C193.090317,481.944061 192.764221,490.873322 193.108353,499.776703 
	C193.306381,504.900696 192.262878,509.128113 188.665085,512.746216 
	C146.645767,513.000000 104.291542,513.000000 61.402164,512.656128 
	C55.936932,507.397095 55.902893,501.237610 55.931736,494.807617 
	C56.080975,461.536438 56.084877,428.263855 55.925030,394.992767 
	C55.895836,388.916168 57.741634,384.305023 63.416153,381.147278 
	C65.397148,381.019379 66.984550,380.952209 69.066788,380.962799 
	C81.040634,380.988861 92.519630,380.937164 104.461624,380.963867 
	C115.625282,380.989563 126.325943,380.936859 137.487823,380.962585 
	C147.968033,380.990875 157.987030,380.940796 168.467285,380.974487 
	C172.546051,381.065735 176.175476,381.262543 179.778244,381.035736 
	C185.007462,380.706543 189.070953,382.499695 192.032166,387.274780 
	C192.332214,391.667664 192.803818,395.633087 192.829407,399.601440 
	C192.987289,424.075806 193.044617,448.550842 193.135391,473.025635 
z"/>
<path fill="#E8B800" opacity="1.000000" stroke="none" 
	d="
M63.022552,381.208008 
	C57.741634,384.305023 55.895836,388.916168 55.925030,394.992767 
	C56.084877,428.263855 56.080975,461.536438 55.931736,494.807617 
	C55.902893,501.237610 55.936932,507.397095 60.933506,512.656128 
	C46.645771,513.000000 32.291542,513.000000 17.468657,513.000000 
	C16.986393,512.518921 17.164173,511.758392 16.930658,511.598450 
	C13.047657,508.939240 11.981944,505.068909 11.983589,500.655121 
	C11.996939,464.827209 11.979921,428.999329 12.001070,393.171417 
	C12.005757,385.230652 16.244238,381.008484 24.056801,380.998047 
	C28.056110,380.992706 32.055416,380.983063 36.980503,380.973572 
	C43.605511,380.926666 49.304741,380.881531 55.444275,380.906433 
	C58.263901,381.053619 60.643227,381.130798 63.022552,381.208008 
z"/>
<path fill="#DEF6FD" opacity="1.000000" stroke="none" 
	d="
M193.595016,473.014160 
	C193.044617,448.550842 192.987289,424.075806 192.829407,399.601440 
	C192.803818,395.633087 192.332214,391.667664 192.501038,387.244934 
	C235.745285,386.782837 278.555298,386.778137 321.365295,386.769165 
	C329.324738,386.767517 333.062592,384.276947 332.982178,379.054596 
	C332.904999,374.038300 329.357635,371.750366 321.579102,371.748871 
	C270.440277,371.739136 219.301437,371.736176 168.112244,371.281647 
	C168.095856,363.620483 168.129791,356.408630 168.620728,349.194031 
	C219.728302,349.189728 270.378906,349.189575 321.029510,349.181396 
	C322.860748,349.181091 324.715240,349.272339 326.518433,349.025543 
	C330.307770,348.506958 332.533966,346.123352 332.895569,342.415558 
	C333.260437,338.674561 331.435669,335.918457 327.822937,334.772156 
	C326.125580,334.233582 324.220764,334.191589 322.409882,334.190765 
	C270.926208,334.167511 219.442566,334.178192 167.800339,333.814362 
	C165.604935,326.293762 163.568100,319.142151 162.034500,311.948364 
	C190.182983,311.897949 217.828217,311.890564 245.473450,311.879211 
	C246.971863,311.878601 248.484238,311.969727 249.966080,311.803680 
	C254.581635,311.286499 257.375641,308.110504 257.125366,303.807068 
	C256.888275,299.730194 254.063873,296.933533 249.464020,296.931152 
	C216.826492,296.914185 184.188919,297.006531 151.304443,296.868561 
	C149.722809,295.445251 148.395981,294.208679 147.052139,292.990906 
	C136.479340,283.409637 124.280739,277.413940 109.545555,276.108765 
	C107.439720,275.721588 105.717186,275.398651 103.996414,274.602295 
	C103.999306,214.524765 103.961143,154.920517 104.088470,95.316650 
	C104.097122,91.267265 105.349747,87.220543 106.023827,83.172577 
	C118.515053,83.114746 131.006256,83.012802 143.497498,83.006981 
	C188.647278,82.985954 233.797058,82.997261 279.539856,83.435127 
	C281.039673,104.915474 281.946472,125.957054 282.393982,146.999908 
	C237.138626,147.002319 192.342499,146.990112 147.546402,147.020874 
	C141.725067,147.024872 138.261429,149.955276 138.296066,154.556778 
	C138.329590,159.011597 141.691925,161.972610 147.139465,161.973648 
	C193.433670,161.982544 239.727859,161.939209 286.272827,162.189270 
	C289.153229,169.702118 291.782898,176.937241 293.908600,184.191132 
	C245.970459,184.217804 198.536224,184.215622 151.102066,184.262314 
	C148.627991,184.264755 145.639496,183.900650 143.809418,185.104324 
	C141.465866,186.645691 138.647034,189.600815 138.639038,191.955582 
	C138.631073,194.307526 141.520126,197.064682 143.759628,198.877792 
	C145.064163,199.933960 147.585052,199.664764 149.561508,199.682999 
	C157.716187,199.758301 165.871964,199.723175 174.027313,199.714859 
	C216.966293,199.671112 259.905273,199.623199 303.096069,199.838272 
	C308.868469,207.352432 314.389008,214.605042 319.449951,221.898087 
	C295.373535,221.953506 271.756683,221.968842 248.139862,221.983276 
	C239.325089,221.988663 230.509125,221.906494 221.695953,222.027451 
	C216.162872,222.103394 213.174011,225.494278 213.828079,230.558090 
	C214.369141,234.747040 217.372452,236.956573 223.019638,236.962616 
	C256.615601,236.998535 290.212128,237.052521 323.806793,236.838684 
	C326.498108,236.821564 329.176849,234.829681 332.173706,233.914963 
	C349.886871,246.711853 367.264954,259.380890 384.705627,271.963226 
	C388.791748,274.911072 393.049988,274.535187 397.264465,271.949493 
	C401.759155,269.191864 406.313690,266.531738 410.842072,263.829041 
	C410.894745,277.819153 410.988068,291.809265 410.992859,305.799377 
	C411.010864,358.609375 411.000183,411.419373 411.000061,464.229370 
	C411.000031,472.312622 410.331543,473.000366 402.462524,473.000488 
	C332.993225,473.001556 263.523926,473.002045 193.595016,473.014160 
M167.499969,274.255768 
	C218.635818,274.255707 269.771667,274.256714 320.907501,274.251312 
	C322.738525,274.251129 324.584778,274.324493 326.397461,274.124207 
	C330.226929,273.701080 332.488922,271.336121 332.883453,267.648224 
	C333.306488,263.693695 331.376801,260.812225 327.469452,259.791290 
	C325.417908,259.255249 323.190155,259.250000 321.041870,259.248993 
	C264.076202,259.222473 207.110565,259.227539 150.144913,259.229584 
	C148.812607,259.229614 147.471436,259.162750 146.149567,259.287628 
	C141.279251,259.747711 138.016479,263.095306 138.279541,267.276672 
	C138.536118,271.354950 141.692734,274.137634 146.512512,274.217224 
	C153.173386,274.327240 159.837341,274.251862 167.499969,274.255768 
M286.524048,296.866150 
	C284.030121,296.867798 281.535553,296.833160 279.042419,296.878510 
	C273.594269,296.977570 270.215027,299.741974 270.110718,304.133087 
	C270.001526,308.728729 273.497650,311.832367 279.181519,311.858002 
	C294.144714,311.925415 309.108643,311.929504 324.071777,311.855957 
	C329.526825,311.829132 332.854675,308.934540 332.980194,304.489288 
	C333.110168,299.885651 329.664276,296.909912 323.927979,296.885284 
	C311.791138,296.833160 299.653931,296.867310 286.524048,296.866150 
M142.752121,236.192596 
	C143.382019,236.397690 144.011108,236.779144 144.641953,236.782089 
	C159.760757,236.852768 174.881302,237.017166 189.997742,236.840012 
	C194.641205,236.785599 197.411163,233.297287 197.213318,228.988022 
	C197.011246,224.586563 194.280930,222.051575 189.218414,222.021652 
	C175.259583,221.939117 161.299805,222.025055 147.340744,221.965240 
	C143.534622,221.948929 140.396576,222.912918 138.913818,226.759781 
	C137.431168,230.606384 138.915665,233.525970 142.752121,236.192596 
z"/>
<path fill="#E8B801" opacity="1.000000" stroke="none" 
	d="
M294.412537,184.172348 
	C291.782898,176.937241 289.153229,169.702118 286.290253,161.791382 
	C284.989044,156.410049 283.921143,151.704330 282.853241,146.998627 
	C281.946472,125.957054 281.039673,104.915474 279.999939,83.419205 
	C279.908844,76.147751 279.989014,69.330948 279.980255,62.514256 
	C279.973389,57.143353 281.967834,53.314930 287.118744,50.895947 
	C297.250092,46.138039 307.191101,40.974861 317.577576,35.924545 
	C317.962311,59.258656 317.888428,82.648254 318.063690,106.035995 
	C318.106842,111.795219 318.961456,117.548363 319.699219,124.099495 
	C320.149078,128.354385 320.161224,131.835663 320.569580,135.269836 
	C321.946411,146.848526 326.864716,157.058685 333.048676,166.750732 
	C336.785217,174.072891 339.734955,181.944473 344.397034,188.620300 
	C362.742401,214.890076 388.118408,233.364029 414.722595,250.338196 
	C417.237915,251.943024 419.854828,253.388718 422.775574,254.981720 
	C419.169617,257.793762 415.212585,260.532379 411.048828,263.550018 
	C406.313690,266.531738 401.759155,269.191864 397.264465,271.949493 
	C393.049988,274.535187 388.791748,274.911072 384.705627,271.963226 
	C367.264954,259.380890 349.886871,246.711853 332.032318,233.640533 
	C327.688995,229.423630 323.799286,225.640640 319.909576,221.857666 
	C314.389008,214.605042 308.868469,207.352432 302.992554,199.551529 
	C299.895599,194.059601 297.154083,189.115982 294.412537,184.172348 
z"/>
<path fill="#C8EFFE" opacity="1.000000" stroke="none" 
	d="
M105.559174,83.091873 
	C105.349747,87.220543 104.097122,91.267265 104.088470,95.316650 
	C103.961143,154.920517 103.999306,214.524765 103.578842,274.692322 
	C99.042007,275.686890 94.899277,275.953491 90.811806,276.580414 
	C79.201324,278.361298 69.424911,284.192291 60.040409,290.828918 
	C60.024837,224.085541 60.003609,157.342148 60.003899,90.598763 
	C60.003925,84.963173 62.036221,83.000435 67.645088,82.999489 
	C80.128227,82.997383 92.611374,83.006577 105.559174,83.091873 
z"/>
<path fill="#2364AB" opacity="1.000000" stroke="none" 
	d="
M59.719410,290.960388 
	C69.424911,284.192291 79.201324,278.361298 90.811806,276.580414 
	C94.899277,275.953491 99.042007,275.686890 103.577080,275.165741 
	C105.717186,275.398651 107.439720,275.721588 109.233994,276.302032 
	C95.738846,278.842163 84.004341,284.951233 74.406006,294.617767 
	C60.412632,308.710541 54.416950,326.033875 54.948872,345.844666 
	C55.261837,357.500671 55.004696,369.171997 55.003971,380.836426 
	C49.304741,380.881531 43.605511,380.926666 37.441841,380.898987 
	C36.977310,368.834717 37.199356,356.838135 36.928337,344.852753 
	C36.446373,323.538391 43.702183,305.582489 59.719410,290.960388 
z"/>
<path fill="#50C123" opacity="1.000000" stroke="none" 
	d="
M403.964844,56.160934 
	C435.569794,62.067017 459.515533,89.712654 460.887024,121.878250 
	C462.279053,154.526245 441.212494,183.869919 409.885193,192.894104 
	C407.969788,193.445862 406.017853,193.870697 403.412598,194.108459 
	C401.383057,193.260239 400.059296,192.555679 398.659332,192.071289 
	C375.543793,184.073227 360.196289,168.547089 352.867157,145.124420 
	C343.529785,115.283638 356.614716,80.752609 383.587280,65.313950 
	C390.018951,61.632545 397.153564,59.179146 403.964844,56.160934 
M405.525665,116.025627 
	C399.337372,122.231178 393.149109,128.436722 386.642029,134.961960 
	C383.395325,131.589798 380.650665,128.693176 377.854248,125.847389 
	C375.053162,122.996872 372.279236,120.112144 369.350464,117.396561 
	C365.681000,113.994179 361.271545,113.954575 358.263489,117.100571 
	C355.272827,120.228378 355.226288,124.301765 358.624146,127.799126 
	C366.049988,135.442490 373.581024,142.988464 381.232178,150.405991 
	C384.861298,153.924316 388.694550,153.944763 392.295532,150.402023 
	C404.165985,138.723648 415.932739,126.938393 427.628967,115.085297 
	C430.972473,111.696938 430.956146,107.404114 428.064758,104.369118 
	C425.002625,101.154846 420.655609,101.145515 416.997162,104.597229 
	C413.243988,108.138268 409.675079,111.874626 405.525665,116.025627 
z"/>
<path fill="#48A920" opacity="1.000000" stroke="none" 
	d="
M403.568481,56.023468 
	C397.153564,59.179146 390.018951,61.632545 383.587280,65.313950 
	C356.614716,80.752609 343.529785,115.283638 352.867157,145.124420 
	C360.196289,168.547089 375.543793,184.073227 398.659332,192.071289 
	C400.059296,192.555679 401.383057,193.260239 403.017426,194.146591 
	C374.592255,199.320328 351.650726,189.494415 333.326691,166.954834 
	C326.864716,157.058685 321.946411,146.848526 320.569580,135.269836 
	C320.161224,131.835663 320.149078,128.354385 319.893951,124.438019 
	C320.402466,89.353493 345.750183,60.725044 378.918396,55.680115 
	C386.809967,54.479801 395.077484,55.751396 403.568481,56.023468 
z"/>
<path fill="#3776BC" opacity="1.000000" stroke="none" 
	d="
M55.444275,380.906433 
	C55.004696,369.171997 55.261837,357.500671 54.948872,345.844666 
	C54.416950,326.033875 60.412632,308.710541 74.406006,294.617767 
	C84.004341,284.951233 95.738846,278.842163 109.617294,276.366272 
	C124.280739,277.413940 136.479340,283.409637 147.052139,292.990906 
	C148.395981,294.208679 149.722809,295.445251 151.470123,297.188110 
	C155.098907,302.465576 158.315079,307.228088 161.531250,311.990570 
	C163.568100,319.142151 165.604935,326.293762 167.778046,334.268738 
	C167.997467,339.793671 168.080612,344.495239 168.163757,349.196808 
	C168.129791,356.408630 168.095856,363.620483 168.059082,371.742737 
	C168.039536,375.399017 168.022781,378.144867 168.006027,380.890717 
	C157.987030,380.940796 147.968033,380.990875 137.487762,380.501465 
	C137.015488,366.492188 137.214661,353.018127 136.941895,339.553680 
	C136.576599,321.521881 121.415741,306.689667 103.552757,306.820068 
	C83.717506,306.901489 69.250687,320.692627 68.728798,340.013245 
	C68.361023,353.628632 68.602493,367.260529 68.571945,380.885040 
	C66.984550,380.952209 65.397148,381.019379 63.416153,381.147247 
	C60.643227,381.130798 58.263901,381.053619 55.444275,380.906433 
z"/>
<path fill="#C8EFFE" opacity="1.000000" stroke="none" 
	d="
M69.066788,380.962799 
	C68.602493,367.260529 68.361023,353.628632 68.728798,340.013245 
	C69.250687,320.692627 83.717506,306.901489 103.554672,307.294312 
	C103.997192,332.209137 103.997910,356.547302 103.998627,380.885468 
	C92.519630,380.937164 81.040634,380.988861 69.066788,380.962799 
z"/>
<path fill="#06D1FB" opacity="1.000000" stroke="none" 
	d="
M168.467285,380.974487 
	C168.022781,378.144867 168.039536,375.399017 168.109436,372.192078 
	C219.301437,371.736176 270.440277,371.739136 321.579102,371.748871 
	C329.357635,371.750366 332.904999,374.038300 332.982178,379.054596 
	C333.062592,384.276947 329.324738,386.767517 321.365295,386.769165 
	C278.555298,386.778137 235.745285,386.782837 192.466415,386.818848 
	C189.070953,382.499695 185.007462,380.706543 179.778244,381.035736 
	C176.175476,381.262543 172.546051,381.065735 168.467285,380.974487 
z"/>
<path fill="#DEF6FD" opacity="1.000000" stroke="none" 
	d="
M104.461624,380.963867 
	C103.997910,356.547302 103.997192,332.209137 103.994553,307.396729 
	C121.415741,306.689667 136.576599,321.521881 136.941895,339.553680 
	C137.214661,353.018127 137.015488,366.492188 137.026550,380.423065 
	C126.325943,380.936859 115.625282,380.989563 104.461624,380.963867 
z"/>
<path fill="#06D1FB" opacity="1.000000" stroke="none" 
	d="
M166.999969,274.255829 
	C159.837341,274.251862 153.173386,274.327240 146.512512,274.217224 
	C141.692734,274.137634 138.536118,271.354950 138.279541,267.276672 
	C138.016479,263.095306 141.279251,259.747711 146.149567,259.287628 
	C147.471436,259.162750 148.812607,259.229614 150.144913,259.229584 
	C207.110565,259.227539 264.076202,259.222473 321.041870,259.248993 
	C323.190155,259.250000 325.417908,259.255249 327.469452,259.791290 
	C331.376801,260.812225 333.306488,263.693695 332.883453,267.648224 
	C332.488922,271.336121 330.226929,273.701080 326.397461,274.124207 
	C324.584778,274.324493 322.738525,274.251129 320.907501,274.251312 
	C269.771667,274.256714 218.635818,274.255707 166.999969,274.255829 
z"/>
<path fill="#66DCFB" opacity="1.000000" stroke="none" 
	d="
M293.908600,184.191132 
	C297.154083,189.115982 299.895599,194.059601 302.740692,199.289978 
	C259.905273,199.623199 216.966293,199.671112 174.027313,199.714859 
	C165.871964,199.723175 157.716187,199.758301 149.561508,199.682999 
	C147.585052,199.664764 145.064163,199.933960 143.759628,198.877792 
	C141.520126,197.064682 138.631073,194.307526 138.639038,191.955582 
	C138.647034,189.600815 141.465866,186.645691 143.809418,185.104324 
	C145.639496,183.900650 148.627991,184.264755 151.102066,184.262314 
	C198.536224,184.215622 245.970459,184.217804 293.908600,184.191132 
z"/>
<path fill="#05D1FB" opacity="1.000000" stroke="none" 
	d="
M168.620728,349.194031 
	C168.080612,344.495239 167.997467,339.793671 167.936615,334.637756 
	C219.442566,334.178192 270.926208,334.167511 322.409882,334.190765 
	C324.220764,334.191589 326.125580,334.233582 327.822937,334.772156 
	C331.435669,335.918457 333.260437,338.674561 332.895569,342.415558 
	C332.533966,346.123352 330.307770,348.506958 326.518433,349.025543 
	C324.715240,349.272339 322.860748,349.181091 321.029510,349.181396 
	C270.378906,349.189575 219.728302,349.189728 168.620728,349.194031 
z"/>
<path fill="#62DBFB" opacity="1.000000" stroke="none" 
	d="
M282.393982,146.999908 
	C283.921143,151.704330 284.989044,156.410049 286.039490,161.513641 
	C239.727859,161.939209 193.433670,161.982544 147.139465,161.973648 
	C141.691925,161.972610 138.329590,159.011597 138.296066,154.556778 
	C138.261429,149.955276 141.725067,147.024872 147.546402,147.020874 
	C192.342499,146.990112 237.138626,147.002319 282.393982,146.999908 
z"/>
<path fill="#63DBFB" opacity="1.000000" stroke="none" 
	d="
M319.449951,221.898102 
	C323.799286,225.640640 327.688995,229.423630 331.720093,233.481049 
	C329.176849,234.829681 326.498108,236.821564 323.806793,236.838684 
	C290.212128,237.052521 256.615601,236.998535 223.019638,236.962616 
	C217.372452,236.956573 214.369141,234.747040 213.828079,230.558090 
	C213.174011,225.494278 216.162872,222.103394 221.695953,222.027451 
	C230.509125,221.906494 239.325089,221.988663 248.139862,221.983276 
	C271.756683,221.968842 295.373535,221.953506 319.449951,221.898102 
z"/>
<path fill="#04D0FB" opacity="1.000000" stroke="none" 
	d="
M162.034500,311.948364 
	C158.315079,307.228088 155.098907,302.465576 151.717041,297.383545 
	C184.188919,297.006531 216.826492,296.914185 249.464020,296.931152 
	C254.063873,296.933533 256.888275,299.730194 257.125366,303.807068 
	C257.375641,308.110504 254.581635,311.286499 249.966080,311.803680 
	C248.484238,311.969727 246.971863,311.878601 245.473450,311.879211 
	C217.828217,311.890564 190.182983,311.897949 162.034500,311.948364 
z"/>
<path fill="#05D1FB" opacity="1.000000" stroke="none" 
	d="
M287.020447,296.866089 
	C299.653931,296.867310 311.791138,296.833160 323.927979,296.885284 
	C329.664276,296.909912 333.110168,299.885651 332.980194,304.489288 
	C332.854675,308.934540 329.526825,311.829132 324.071777,311.855957 
	C309.108643,311.929504 294.144714,311.925415 279.181519,311.858002 
	C273.497650,311.832367 270.001526,308.728729 270.110718,304.133087 
	C270.215027,299.741974 273.594269,296.977570 279.042419,296.878510 
	C281.535553,296.833160 284.030121,296.867798 287.020447,296.866089 
z"/>
<path fill="#63DBFB" opacity="1.000000" stroke="none" 
	d="
M142.389496,236.018463 
	C138.915665,233.525970 137.431168,230.606384 138.913818,226.759781 
	C140.396576,222.912918 143.534622,221.948929 147.340744,221.965240 
	C161.299805,222.025055 175.259583,221.939117 189.218414,222.021652 
	C194.280930,222.051575 197.011246,224.586563 197.213318,228.988022 
	C197.411163,233.297287 194.641205,236.785599 189.997742,236.840012 
	C174.881302,237.017166 159.760757,236.852768 144.641953,236.782089 
	C144.011108,236.779144 143.382019,236.397690 142.389496,236.018463 
z"/>
<path fill="#FBFEFA" opacity="1.000000" stroke="none" 
	d="
M405.775635,115.775566 
	C409.675079,111.874626 413.243988,108.138268 416.997162,104.597229 
	C420.655609,101.145515 425.002625,101.154846 428.064758,104.369118 
	C430.956146,107.404114 430.972473,111.696938 427.628967,115.085297 
	C415.932739,126.938393 404.165985,138.723648 392.295532,150.402023 
	C388.694550,153.944763 384.861298,153.924316 381.232178,150.405991 
	C373.581024,142.988464 366.049988,135.442490 358.624146,127.799126 
	C355.226288,124.301765 355.272827,120.228378 358.263489,117.100571 
	C361.271545,113.954575 365.681000,113.994179 369.350464,117.396561 
	C372.279236,120.112144 375.053162,122.996872 377.854248,125.847389 
	C380.650665,128.693176 383.395325,131.589798 386.642029,134.961960 
	C393.149109,128.436722 399.337372,122.231178 405.775635,115.775566 
z"/>
</svg>